<svg width="28" height="30" viewBox="0 0 28 30" fill="none" xmlns="http://www.w3.org/2000/svg">
<g filter="url(#filter0_d)">
<mask id="mask0" style="mask-type:alpha" maskUnits="userSpaceOnUse" x="2" y="0" width="24" height="24">
<rect x="2" width="24" height="24" fill="#C4C4C4"/>
</mask>
<g mask="url(#mask0)">
<path d="M5.1499 7.2001C5.1499 6.73031 5.53012 6.3501 5.9999 6.3501H21.9999C22.4697 6.3501 22.8499 6.73031 22.8499 7.2001V16.8001C22.8499 17.2699 22.4697 17.6501 21.9999 17.6501H5.9999C5.53012 17.6501 5.1499 17.2699 5.1499 16.8001V7.2001Z" stroke="black" stroke-width="1.5"/>
<path d="M5.69024 2.45766C5.78861 2.41813 5.89386 2.39854 5.99987 2.40004H21.9999C22.1059 2.39854 22.2111 2.41813 22.3095 2.45766C22.4079 2.49719 22.4974 2.55588 22.5729 2.63032C22.6484 2.70475 22.7084 2.79345 22.7493 2.89125C22.7902 2.98906 22.8113 3.09402 22.8113 3.20004C22.8113 3.30606 22.7902 3.41103 22.7493 3.50883C22.7084 3.60664 22.6484 3.69534 22.5729 3.76977C22.4974 3.84421 22.4079 3.9029 22.3095 3.94243C22.2111 3.98196 22.1059 4.00154 21.9999 4.00004H5.99987C5.89386 4.00154 5.78861 3.98196 5.69024 3.94243C5.59186 3.9029 5.50232 3.84421 5.42683 3.76977C5.35133 3.69534 5.29138 3.60664 5.25047 3.50883C5.20955 3.41103 5.18848 3.30606 5.18848 3.20004C5.18848 3.09402 5.20955 2.98906 5.25047 2.89125C5.29138 2.79345 5.35133 2.70475 5.42683 2.63032C5.50232 2.55588 5.59186 2.49719 5.69024 2.45766Z" fill="black"/>
<path d="M5.70147 20.0578C5.79984 20.0182 5.90509 19.9986 6.0111 20.0001H22.0111C22.1171 19.9986 22.2224 20.0182 22.3207 20.0578C22.4191 20.0973 22.5086 20.156 22.5841 20.2304C22.6596 20.3048 22.7196 20.3935 22.7605 20.4914C22.8014 20.5892 22.8225 20.6941 22.8225 20.8001C22.8225 20.9062 22.8014 21.0111 22.7605 21.1089C22.7196 21.2067 22.6596 21.2954 22.5841 21.3699C22.5086 21.4443 22.4191 21.503 22.3207 21.5425C22.2224 21.5821 22.1171 21.6016 22.0111 21.6001H6.0111C5.90509 21.6016 5.79984 21.5821 5.70147 21.5425C5.60309 21.503 5.51356 21.4443 5.43806 21.3699C5.36256 21.2954 5.30261 21.2067 5.2617 21.1089C5.22078 21.0111 5.19971 20.9062 5.19971 20.8001C5.19971 20.6941 5.22078 20.5892 5.2617 20.4914C5.30261 20.3935 5.36256 20.3048 5.43806 20.2304C5.51356 20.156 5.60309 20.0973 5.70147 20.0578Z" fill="black"/>
</g>
</g>
<defs>
<filter id="filter0_d" x="0.399902" y="2.39996" width="27.2" height="27.2003" filterUnits="userSpaceOnUse" color-interpolation-filters="sRGB">
<feFlood flood-opacity="0" result="BackgroundImageFix"/>
<feColorMatrix in="SourceAlpha" type="matrix" values="0 0 0 0 0 0 0 0 0 0 0 0 0 0 0 0 0 0 127 0" result="hardAlpha"/>
<feOffset dy="4"/>
<feGaussianBlur stdDeviation="2"/>
<feComposite in2="hardAlpha" operator="out"/>
<feColorMatrix type="matrix" values="0 0 0 0 0 0 0 0 0 0 0 0 0 0 0 0 0 0 0.25 0"/>
<feBlend mode="normal" in2="BackgroundImageFix" result="effect1_dropShadow"/>
<feBlend mode="normal" in="SourceGraphic" in2="effect1_dropShadow" result="shape"/>
</filter>
</defs>
</svg>
