<svg width="24" height="24" viewBox="0 0 24 24" fill="none" xmlns="http://www.w3.org/2000/svg">
<path d="M11.9874 3.18904C11.9487 3.18988 11.91 3.19353 11.8718 3.19997H4.79992C3.92547 3.19997 3.19992 3.92552 3.19992 4.79997V11.8656C3.18564 11.952 3.18564 12.0401 3.19992 12.1265V19.2C3.19992 20.0744 3.92547 20.8 4.79992 20.8H11.8655C11.9519 20.8143 12.0401 20.8143 12.1265 20.8H19.1999C20.0744 20.8 20.7999 20.0744 20.7999 19.2V12.1343C20.8142 12.048 20.8142 11.9598 20.7999 11.8734V4.79997C20.7999 3.92552 20.0744 3.19997 19.1999 3.19997H12.1234C12.0784 3.19247 12.033 3.18881 11.9874 3.18904ZM4.79992 4.79997H11.1999V11.2H4.79992V4.79997ZM12.7999 4.79997H19.1999V11.2H12.7999V4.79997ZM4.79992 12.8H11.1999V19.2H4.79992V12.8ZM12.7999 12.8H19.1999V19.2H12.7999V12.8Z" fill="black"/>
</svg>
