<svg width="24" height="24" viewBox="0 0 24 24" fill="none" xmlns="http://www.w3.org/2000/svg">
<path d="M3.82495 4.00001C3.82495 3.90359 3.90353 3.82501 3.99995 3.82501H7.19995C7.29637 3.82501 7.37495 3.90359 7.37495 4.00001V10.4C7.37495 10.4964 7.29637 10.575 7.19995 10.575H3.99995C3.90353 10.575 3.82495 10.4964 3.82495 10.4V4.00001ZM10.225 4.00001C10.225 3.90359 10.3035 3.82501 10.4 3.82501H13.6C13.6964 3.82501 13.775 3.90359 13.775 4.00001V10.4C13.775 10.4964 13.6964 10.575 13.6 10.575H10.4C10.3035 10.575 10.225 10.4964 10.225 10.4V4.00001ZM16.625 4.00001C16.625 3.90359 16.7035 3.82501 16.8 3.82501H20C20.0964 3.82501 20.1749 3.90359 20.1749 4.00001V10.4C20.1749 10.4964 20.0964 10.575 20 10.575H16.8C16.7035 10.575 16.625 10.4964 16.625 10.4V4.00001ZM3.82495 13.6C3.82495 13.5036 3.90353 13.425 3.99995 13.425H7.19995C7.29637 13.425 7.37495 13.5036 7.37495 13.6V20C7.37495 20.0964 7.29637 20.175 7.19995 20.175H3.99995C3.90353 20.175 3.82495 20.0964 3.82495 20V13.6ZM10.225 13.6C10.225 13.5036 10.3035 13.425 10.4 13.425H13.6C13.6964 13.425 13.775 13.5036 13.775 13.6V20C13.775 20.0964 13.6964 20.175 13.6 20.175H10.4C10.3035 20.175 10.225 20.0964 10.225 20V13.6ZM16.625 13.6C16.625 13.5036 16.7035 13.425 16.8 13.425H20C20.0964 13.425 20.1749 13.5036 20.1749 13.6V20C20.1749 20.0964 20.0964 20.175 20 20.175H16.8C16.7035 20.175 16.625 20.0964 16.625 20V13.6Z" stroke="black" stroke-width="1.25"/>
</svg>
