<svg width="24" height="24" viewBox="0 0 24 24" fill="none" xmlns="http://www.w3.org/2000/svg">
<g clip-path="url(#clip0)">
<path d="M19.2018 4.2026C19.1009 4.10881 18.9775 4.04264 18.8436 4.01051C18.7097 3.97838 18.5697 3.98137 18.4372 4.0192L2.59804 8.54468C2.46395 8.58291 2.34217 8.65551 2.24478 8.7553C2.14739 8.85509 2.07777 8.9786 2.04283 9.11359C2.00788 9.24858 2.00882 9.39035 2.04555 9.52487C2.08228 9.65938 2.15352 9.78196 2.25222 9.88045L5.97779 13.606L5.97779 16.6687C5.97784 16.8808 6.06213 17.0842 6.21213 17.2343C6.36213 17.3843 6.56557 17.4685 6.77771 17.4686L9.84036 17.4686L13.5659 21.1942C13.6644 21.2929 13.787 21.3641 13.9215 21.4008C14.056 21.4376 14.1978 21.4385 14.3328 21.4036C14.4678 21.3686 14.5913 21.299 14.6911 21.2016C14.7909 21.1042 14.8635 20.9824 14.9017 20.8483L19.4272 5.00915C19.4678 4.86701 19.4682 4.7164 19.4284 4.57403C19.3887 4.43166 19.3102 4.3031 19.2018 4.2026ZM17.4915 5.9549L13.735 19.1005L10.7375 16.103C10.5875 15.953 10.384 15.8687 10.1718 15.8688L7.57762 15.8688L13.1516 10.2948C13.6138 9.83261 13.0602 9.08332 12.4821 9.38879L6.95117 12.3167L4.34592 9.71141L17.4915 5.9549Z" fill="black"/>
</g>
<defs>
<clipPath id="clip0">
<rect width="24" height="24" fill="white"/>
</clipPath>
</defs>
</svg>
