<svg width="30" height="30" viewBox="0 0 30 30" fill="none" xmlns="http://www.w3.org/2000/svg">
<path d="M14.9667 2.99999C14.7878 3.00603 14.6138 3.05999 14.4628 3.15624L2.46283 10.793C2.35199 10.8635 2.25612 10.9551 2.18071 11.0627C2.1053 11.1703 2.05182 11.2916 2.02333 11.4199C1.99483 11.5481 1.99188 11.6807 2.01463 11.8101C2.03739 11.9395 2.08542 12.0631 2.15596 12.174C2.22651 12.2848 2.31819 12.3806 2.42579 12.456C2.53338 12.5314 2.65476 12.5848 2.78301 12.6133C2.91126 12.6418 3.04386 12.6447 3.17324 12.6219C3.30262 12.5991 3.42624 12.551 3.53704 12.4805L14.9999 5.18553L26.4628 12.4805C26.5736 12.551 26.6973 12.5991 26.8266 12.6219C26.956 12.6447 27.0886 12.6418 27.2169 12.6133C27.3451 12.5849 27.4665 12.5314 27.5741 12.456C27.6817 12.3806 27.7734 12.2848 27.844 12.174C27.9145 12.0632 27.9625 11.9395 27.9853 11.8101C28.008 11.6807 28.0051 11.5481 27.9766 11.4199C27.9481 11.2916 27.8946 11.1703 27.8192 11.0627C27.7438 10.9551 27.6479 10.8635 27.537 10.793L15.537 3.15624C15.367 3.04786 15.1682 2.99339 14.9667 2.99999ZM14.9999 6.99999L3.99994 14V24C3.99994 25.105 4.89494 26 5.99994 26H9.99994V22C9.99994 19.239 12.2389 17 14.9999 17C17.7609 17 19.9999 19.239 19.9999 22V26H23.9999C25.1049 26 25.9999 25.105 25.9999 24V14L14.9999 6.99999Z" fill="black"/>
</svg>
