<svg width="30" height="30" class="ico" viewBox="0 0 30 30"  xmlns="http://www.w3.org/2000/svg">
<path d="M9.54492 3C5.38958 3 2 6.38958 2 10.5449C2 14.2832 4.90055 18.0847 7.66016 21.1191C10.4198 24.1536 13.1719 26.3691 13.1719 26.3691C13.1802 26.3758 13.1887 26.3823 13.1973 26.3887C13.6428 26.7251 14.2018 26.9439 14.8086 26.9844C14.8717 26.9957 14.9358 27.0009 15 27C15.0635 27.0008 15.1269 26.9956 15.1895 26.9844C15.1927 26.9837 15.196 26.9831 15.1992 26.9824C15.8029 26.9404 16.3592 26.7237 16.8027 26.3887C16.8113 26.3823 16.8198 26.3758 16.8281 26.3691C16.8281 26.3691 19.5802 24.1536 22.3398 21.1191C25.0995 18.0847 28 14.2832 28 10.5449C28 6.38958 24.6104 3 20.4551 3C17.841 3 15.9899 4.43855 15 5.45703C14.0101 4.43855 12.159 3 9.54492 3ZM9.54492 5C12.2761 5 13.9378 7.24245 14.1035 7.47461C14.1882 7.63757 14.3161 7.77408 14.4732 7.86916C14.6303 7.96425 14.8105 8.01425 14.9941 8.01367C15.002 8.01376 15.0098 8.01376 15.0176 8.01367C15.0254 8.01311 15.0332 8.01246 15.041 8.01172C15.0665 8.01074 15.0919 8.00878 15.1172 8.00586C15.2797 7.98803 15.4353 7.93063 15.5705 7.8387C15.7057 7.74676 15.8163 7.62309 15.8926 7.47852C16.0499 7.25751 17.7161 5 20.4551 5C23.5297 5 26 7.47026 26 10.5449C26 13.1477 23.4998 16.8701 20.8594 19.7734C18.228 22.6669 15.6078 24.7805 15.5898 24.7949C15.4142 24.9256 15.2191 25 15 25C14.7809 25 14.5858 24.9256 14.4102 24.7949C14.3922 24.7805 11.772 22.6669 9.14062 19.7734C6.50023 16.8701 4 13.1477 4 10.5449C4 7.47026 6.47026 5 9.54492 5Z" fill="black"/>
</svg>
