<svg width="24" height="24" viewBox="0 0 24 24" fill="none" xmlns="http://www.w3.org/2000/svg">
<path d="M11.9875 0.789069C11.7756 0.792381 11.5736 0.879629 11.426 1.03166C11.2784 1.1837 11.1971 1.3881 11.2 1.60001V4.00001C11.1985 4.10601 11.2181 4.21127 11.2576 4.30964C11.2971 4.40801 11.3558 4.49755 11.4302 4.57305C11.5047 4.64854 11.5934 4.70849 11.6912 4.74941C11.789 4.79033 11.8939 4.8114 12 4.8114C12.106 4.8114 12.211 4.79033 12.3088 4.74941C12.4066 4.70849 12.4953 4.64854 12.5697 4.57305C12.6441 4.49755 12.7028 4.40801 12.7424 4.30964C12.7819 4.21127 12.8015 4.10601 12.8 4.00001V1.60001C12.8014 1.49297 12.7814 1.38674 12.7411 1.28758C12.7007 1.18843 12.6409 1.09838 12.5652 1.02276C12.4894 0.947148 12.3992 0.887502 12.3 0.847361C12.2008 0.807219 12.0945 0.787397 11.9875 0.789069ZM4.63747 3.83907C4.47845 3.83942 4.32315 3.88715 4.19139 3.97616C4.05962 4.06517 3.95736 4.19142 3.89767 4.33881C3.83798 4.48619 3.82356 4.64802 3.85625 4.80364C3.88894 4.95925 3.96726 5.1016 4.08122 5.21251L5.77809 6.90938C5.85181 6.98616 5.9401 7.04745 6.03781 7.08968C6.13551 7.13191 6.24066 7.15421 6.34709 7.1553C6.45352 7.15638 6.5591 7.13621 6.65764 7.09598C6.75618 7.05575 6.8457 6.99626 6.92096 6.921C6.99623 6.84574 7.05571 6.75621 7.09595 6.65767C7.13618 6.55913 7.15634 6.45356 7.15526 6.34712C7.15418 6.24069 7.13187 6.13555 7.08964 6.03784C7.04742 5.94014 6.98612 5.85185 6.90934 5.77813L5.21247 4.08126C5.13773 4.00443 5.04832 3.94341 4.94955 3.9018C4.85077 3.8602 4.74465 3.83887 4.63747 3.83907ZM19.3375 3.83907C19.1296 3.84526 18.9324 3.93212 18.7875 4.08126L17.0906 5.77813C17.0138 5.85185 16.9525 5.94014 16.9103 6.03784C16.8681 6.13555 16.8458 6.24069 16.8447 6.34712C16.8436 6.45355 16.8638 6.55913 16.904 6.65767C16.9442 6.75621 17.0037 6.84573 17.079 6.921C17.1542 6.99626 17.2438 7.05575 17.3423 7.09598C17.4408 7.13621 17.5464 7.15637 17.6529 7.15529C17.7593 7.15421 17.8644 7.1319 17.9621 7.08968C18.0598 7.04745 18.1481 6.98616 18.2218 6.90938L19.9187 5.21251C20.0343 5.10013 20.1133 4.95546 20.1452 4.79745C20.1772 4.63943 20.1607 4.47544 20.0979 4.32697C20.035 4.17851 19.9288 4.05248 19.7931 3.96542C19.6574 3.87836 19.4986 3.83432 19.3375 3.83907ZM12 6.4C10.5148 6.4 9.09037 6.99 8.04017 8.04021C6.98997 9.09041 6.39997 10.5148 6.39997 12C6.39997 13.4852 6.98997 14.9096 8.04017 15.9598C9.09037 17.01 10.5148 17.6 12 17.6C13.4852 17.6 14.9096 17.01 15.9598 15.9598C17.01 14.9096 17.6 13.4852 17.6 12C17.6 10.5148 17.01 9.09041 15.9598 8.04021C14.9096 6.99 13.4852 6.4 12 6.4ZM1.59997 11.2C1.49396 11.1985 1.38871 11.2181 1.29033 11.2576C1.19196 11.2972 1.10242 11.3558 1.02693 11.4303C0.951431 11.5047 0.891482 11.5934 0.850564 11.6912C0.809646 11.789 0.788574 11.894 0.788574 12C0.788574 12.106 0.809646 12.211 0.850564 12.3088C0.891482 12.4066 0.951431 12.4953 1.02693 12.5697C1.10242 12.6442 1.19196 12.7029 1.29033 12.7424C1.38871 12.7819 1.49396 12.8015 1.59997 12.8H3.99997C4.10598 12.8015 4.21123 12.7819 4.3096 12.7424C4.40798 12.7029 4.49751 12.6442 4.57301 12.5697C4.64851 12.4953 4.70845 12.4066 4.74937 12.3088C4.79029 12.211 4.81136 12.106 4.81136 12C4.81136 11.894 4.79029 11.789 4.74937 11.6912C4.70845 11.5934 4.64851 11.5047 4.57301 11.4303C4.49751 11.3558 4.40798 11.2972 4.3096 11.2576C4.21123 11.2181 4.10598 11.1985 3.99997 11.2H1.59997ZM20 11.2C19.894 11.1985 19.7887 11.2181 19.6903 11.2576C19.592 11.2972 19.5024 11.3558 19.4269 11.4303C19.3514 11.5047 19.2915 11.5934 19.2506 11.6912C19.2096 11.789 19.1886 11.894 19.1886 12C19.1886 12.106 19.2096 12.211 19.2506 12.3088C19.2915 12.4066 19.3514 12.4953 19.4269 12.5697C19.5024 12.6442 19.592 12.7029 19.6903 12.7424C19.7887 12.7819 19.894 12.8015 20 12.8H22.4C22.506 12.8015 22.6112 12.7819 22.7096 12.7424C22.808 12.7029 22.8975 12.6442 22.973 12.5697C23.0485 12.4953 23.1085 12.4066 23.1494 12.3088C23.1903 12.211 23.2114 12.106 23.2114 12C23.2114 11.894 23.1903 11.789 23.1494 11.6912C23.1085 11.5934 23.0485 11.5047 22.973 11.4303C22.8975 11.3558 22.808 11.2972 22.7096 11.2576C22.6112 11.2181 22.506 11.1985 22.4 11.2H20ZM6.32809 16.8484C6.12025 16.8546 5.92299 16.9415 5.77809 17.0906L4.08122 18.7875C4.00444 18.8612 3.94315 18.9495 3.90092 19.0472C3.85869 19.1449 3.83639 19.2501 3.8353 19.3565C3.83422 19.4629 3.85439 19.5685 3.89462 19.667C3.93485 19.7656 3.99434 19.8551 4.0696 19.9304C4.14486 20.0056 4.23439 20.0651 4.33293 20.1054C4.43147 20.1456 4.53704 20.1657 4.64348 20.1647C4.74991 20.1636 4.85505 20.1413 4.95275 20.0991C5.05046 20.0568 5.13875 19.9955 5.21247 19.9188L6.90934 18.2219C7.02495 18.1095 7.1039 17.9648 7.13587 17.8068C7.16784 17.6488 7.15132 17.4848 7.08849 17.3363C7.02566 17.1879 6.91944 17.0619 6.78375 16.9748C6.64806 16.8877 6.48924 16.8437 6.32809 16.8484ZM17.6484 16.8484C17.4893 16.8485 17.3337 16.896 17.2017 16.9849C17.0697 17.0738 16.9672 17.2 16.9073 17.3475C16.8475 17.4949 16.8329 17.6569 16.8655 17.8126C16.8982 17.9684 16.9765 18.1109 17.0906 18.2219L18.7875 19.9188C18.8612 19.9955 18.9495 20.0568 19.0472 20.099C19.1449 20.1413 19.25 20.1636 19.3565 20.1647C19.4629 20.1657 19.5685 20.1456 19.667 20.1053C19.7655 20.0651 19.8551 20.0056 19.9303 19.9304C20.0056 19.8551 20.0651 19.7656 20.1053 19.667C20.1455 19.5685 20.1657 19.4629 20.1646 19.3565C20.1635 19.2501 20.1412 19.1449 20.099 19.0472C20.0568 18.9495 19.9955 18.8612 19.9187 18.7875L18.2218 17.0906C18.1473 17.014 18.0581 16.9531 17.9596 16.9115C17.8612 16.8699 17.7553 16.8484 17.6484 16.8484ZM11.9875 19.1891C11.7756 19.1924 11.5736 19.2796 11.426 19.4317C11.2784 19.5837 11.1971 19.7881 11.2 20V22.4C11.1985 22.506 11.2181 22.6113 11.2576 22.7096C11.2971 22.808 11.3558 22.8975 11.4302 22.973C11.5047 23.0485 11.5934 23.1085 11.6912 23.1494C11.789 23.1903 11.8939 23.2114 12 23.2114C12.106 23.2114 12.211 23.1903 12.3088 23.1494C12.4066 23.1085 12.4953 23.0485 12.5697 22.973C12.6441 22.8975 12.7028 22.808 12.7424 22.7096C12.7819 22.6113 12.8015 22.506 12.8 22.4V20C12.8014 19.893 12.7814 19.7867 12.7411 19.6876C12.7007 19.5884 12.6409 19.4984 12.5652 19.4228C12.4894 19.3471 12.3992 19.2875 12.3 19.2474C12.2008 19.2072 12.0945 19.1874 11.9875 19.1891Z" fill="black"/>
</svg>
