<svg width="75" height="75" viewBox="0 0 75 75" fill="none" xmlns="http://www.w3.org/2000/svg">
<path d="M55.1996 0.799988C53.8201 0.799988 52.4786 0.953598 51.1809 1.23124C51.1246 1.22975 51.0684 1.22975 51.0121 1.23124C50.8313 1.23892 50.6515 1.26192 50.4746 1.29999L3.38713 10.4562C2.97419 10.5366 2.58112 10.6975 2.23038 10.9297C1.87963 11.162 1.57808 11.4611 1.34294 11.8099C1.1078 12.1588 0.943684 12.5505 0.859964 12.9628C0.776244 13.375 0.774561 13.7997 0.85501 14.2127C0.935458 14.6256 1.09646 15.0186 1.32883 15.3693C1.5612 15.72 1.86037 16.0214 2.20926 16.2565C2.55816 16.4915 2.94994 16.6555 3.36223 16.7391C3.77451 16.8227 4.19923 16.8243 4.61213 16.7437L38.7809 10.0937C37.3586 12.4424 36.4142 15.1066 36.1121 17.9687L12.1684 29.9375C11.7925 30.1254 11.4573 30.3856 11.1819 30.7031C10.9065 31.0206 10.6964 31.3892 10.5635 31.7879C10.4306 32.1866 10.3775 32.6076 10.4073 33.0269C10.4371 33.4461 10.5492 33.8553 10.7371 34.2312C10.9251 34.6071 11.1852 34.9423 11.5027 35.2177C11.8202 35.4931 12.1889 35.7032 12.5876 35.8361C12.9863 35.969 13.4073 36.0221 13.8265 35.9923C14.2457 35.9625 14.655 35.8504 15.0309 35.6625L36.6434 24.8562C37.167 26.8488 37.9929 28.7208 39.0871 30.4062L5.00588 62.4687C4.69968 62.7568 4.45323 63.1024 4.28059 63.4857C4.10795 63.869 4.01252 64.2826 3.99972 64.7028C3.98693 65.123 4.05704 65.5416 4.20604 65.9348C4.35504 66.3279 4.58002 66.6878 4.86813 66.994C5.15623 67.3001 5.50183 67.5465 5.88517 67.7191C6.26852 67.8917 6.68211 67.9871 7.10232 67.9999C7.52254 68.0126 7.94115 67.9425 8.33425 67.7934C8.72735 67.6444 9.08724 67.4194 9.39338 67.1312L50.9934 28C51.4694 27.5648 51.8029 26.996 51.9501 26.3681C52.0972 25.7402 52.0512 25.0824 51.8181 24.4811C51.585 23.8798 51.1757 23.3629 50.6437 22.9982C50.1118 22.6335 49.4821 22.4381 48.8371 22.4375C48.0046 22.4359 47.2043 22.7587 46.6059 23.3375L43.8621 25.9187C42.975 24.2308 42.465 22.319 42.4184 20.2937C42.4373 20.1047 42.4394 19.9144 42.4246 19.725C42.5749 12.7954 48.2346 7.19999 55.1996 7.19999C62.2588 7.19999 67.9996 12.9408 67.9996 20C67.9996 27.0592 62.2588 32.8 55.1996 32.8C55.1068 32.8 55.0174 32.7719 54.9246 32.7687L49.1496 38.2062C51.0536 38.8398 53.0844 39.2 55.1996 39.2C56.3881 39.2 57.5453 39.0763 58.6746 38.8687L39.6809 69.5125C39.451 69.8696 39.2944 70.2689 39.2204 70.6871C39.1464 71.1053 39.1563 71.5341 39.2497 71.9484C39.3431 72.3628 39.518 72.7544 39.7642 73.1004C40.0105 73.4465 40.3232 73.74 40.684 73.964C41.0449 74.188 41.4467 74.3379 41.8661 74.405C42.2855 74.4721 42.714 74.4551 43.1268 74.3549C43.5395 74.2547 43.9282 74.0733 44.2701 73.8214C44.612 73.5695 44.9004 73.252 45.1184 72.8875L71.2371 30.7437C71.3974 30.4914 71.5215 30.218 71.6059 29.9312C73.3687 27.0297 74.3996 23.6368 74.3996 20C74.3996 9.41119 65.7884 0.799988 55.1996 0.799988Z" fill="black"/>
</svg>
